{"title":"American Pie: The Book Of Love.x264.AC3.{12}Multi_Sub.mkv","uid":5493696,"size":1002904190,"categoryP":"video","categoryS":"movies","magnet":"?xt=urn:btih:fd69a9e2774d0e023c424b62891641a957389608&amp;dn=American+Pie%3A+The+Book+Of+Love.x264.AC3.%7B12%7DMulti_Sub.mkv&amp;tr=udp%3A%2F%2Ftracker.openbittorrent.com%3A80&amp;tr=udp%3A%2F%2Fopen.demonii.com%3A1337&amp;tr=udp%3A%2F%2Ftracker.coppersurfer.tk%3A6969&amp;tr=udp%3A%2F%2Fexodus.desync.com%3A6969","seeders":1,"leechers":0,"uploader":"Zen_Bud","files":-1,"time":1271149209,"description":"General\nComplete name                    : American Pie_The Book Of Love.mkv\nFormat                           : Matroska\nFile size                        : 956 MiB\nDuration                         : 1h 10mn\nOverall bit rate                 : 1 892 Kbps\nWriting application              : HandBrake 0.9.4\n\nVideo\nID                               : 1\nFormat                           : AVC\nDuration                         : 1h 10mn\nBit rate                         : 1 471 Kbps\nWidth                            : 720 pixels\nHeight                           : 572 pixels\nDisplay aspect ratio             : 16:9\nFrame rate                       : 25.000 fps\nResolution                       : 8 bits\nColorimetry                      : 4:2:0\nScan type                        : Progressive\nBits/(Pixel*Frame)               : 0.143\nStream size                      : 743 MiB (78%)\nWriting library                  : x264 core 79\n\nAudio\nID                               : 2\nFormat                           : AC-3\nFormat/Info                      : Audio Coding 3\nCodec ID                         : A_AC3\nDuration                         : 1h 10mn\nBit rate mode                    : Constant\nBit rate                         : 384 Kbps\nChannel(s)                       : 6 channels\nChannel positions                : Front: L C R, Side: L R, LFE\nSampling rate                    : 48.0 KHz\nStream size                      : 194 MiB (20%)\nLanguage                         : English\n\nText #1\nID                               : 3\nLanguage                         : English\n\nText #2\nLanguage                         : Spanish\n\nText #3\nLanguage                         : Hungarian\n\nText #4\nLanguage                         : Dutch\n\nText #5\nLanguage                         : Portuguese\n\nText #6\nLanguage                         : Arabic\n\nText #7\nLanguage                         : Danish\n\nText #8\nLanguage                         : Finnish\n\nText #9\nLanguage                         : Icelandic\n\nText #10\nLanguage                         : Norwegian\n\nText #11\nLanguage                         : Romanian\n\nText #12\nLanguage                         : Swedish\n\n","torrent":{"xt":"urn:btih:fd69a9e2774d0e023c424b62891641a957389608","amp;dn":"American+Pie%3A+The+Book+Of+Love.x264.AC3.%7B12%7DMulti_Sub.mkv","amp;tr":["udp%3A%2F%2Ftracker.openbittorrent.com%3A80","udp%3A%2F%2Fopen.demonii.com%3A1337","udp%3A%2F%2Ftracker.coppersurfer.tk%3A6969","udp%3A%2F%2Fexodus.desync.com%3A6969"],"infoHash":"fd69a9e2774d0e023c424b62891641a957389608","infoHashBuffer":{"type":"Buffer","data":[253,105,169,226,119,77,14,2,60,66,75,98,137,22,65,169,87,56,150,8]},"announce":[],"urlList":[]}}